<?xml version="1.0" encoding="utf-8"?>
<!-- Generator: Adobe Illustrator 22.0.0, SVG Export Plug-In . SVG Version: 6.00 Build 0)  -->
<svg version="1.1" id="图层_1" xmlns="http://www.w3.org/2000/svg" xmlns:xlink="http://www.w3.org/1999/xlink" x="0px" y="0px"
	 style="enable-background:new 0 0 98.1 66.1;" xml:space="preserve">
<style type="text/css">
	.st0{display:none;}
	.st1{display:inline;}
	.st2{fill:url(#Combined-Shape_2_);}
	.st3{fill:url(#SVGID_1_);}
	.st4{display:inline;fill:url(#Combined-Shape_3_);}
	.st5{opacity:0.25;}
	.st6{fill:#FFFFFF;}
</style>
<g id="图层_1_1_" class="st0">
	<title>Combined Shape</title>
	<desc>Created with Sketch.</desc>
	<g id="logo" class="st1">
		
			<linearGradient id="Combined-Shape_2_" gradientUnits="userSpaceOnUse" x1="-505.7474" y1="11.9093" x2="-506.7474" y2="10.9093" gradientTransform="matrix(98.1445 0 0 66.1484 49737.9922 -723.9836)">
			<stop  offset="0" style="stop-color:#0089FF"/>
			<stop  offset="1" style="stop-color:#02DEF2"/>
		</linearGradient>
		<path id="Combined-Shape" class="st2" d="M0,3.2h8.3v16.7H19V28H8.3v16.7H0V3.2z M38.8,35.7V3.2h-8.3v41.5h8.3v-0.5
			c0.5-1.8,1.6-2.6,3.1-2.6c0.9,0,1.6,0.3,2.1,0.8s0.8,1.3,0.8,2.1c0,1.2-0.4,2.3-1.3,3.4c-0.9,1.1-2.5,2.6-4.8,4.5s-4.3,4-5.8,6.3
			c-1.5,2.4-2.3,4.8-2.3,7.4h22.7v-6.3H40.9c0.5-0.9,1.8-2.1,4-3.9c3.1-2.4,5.2-4.4,6.3-5.9s1.6-3.3,1.6-5.3c0-2.8-0.9-5.1-2.8-6.8
			c-1.9-1.7-4.4-2.6-7.6-2.6C41.1,35.3,39.9,35.4,38.8,35.7z M73.9,0h0.3C81.5,0,87.8,3,93,9c3.4,4.5,5,9.4,5,14.7V24
			c0,7.3-3.1,13.6-9.2,18.7c-4.5,3.3-9.4,5-14.7,5h-0.3c-7.3,0-13.6-3-18.8-9c-1.8-2.5-3.1-4.9-3.8-7C50.4,29.2,50,26.6,50,24v-0.3
			c0-7.2,3-13.4,8.9-18.5c4-2.9,7.7-4.5,11-4.8C71,0.1,72.3,0,73.9,0z M59.6,23.8c0,4.2,1.6,7.8,4.9,11c2.9,2.5,5.9,3.7,9.1,3.7h0.9
			c2.6,0,5.2-0.9,7.8-2.6c2.7-2,4.6-4.6,5.6-7.7c0.3-0.8,0.5-2.2,0.7-4.2c0-4.1-1.6-7.7-4.7-10.8c-3-2.6-6.2-4-9.8-4
			c-4.1,0-7.8,1.7-11,5.2c-1.4,1.8-2.2,3.3-2.6,4.5C59.9,20.7,59.6,22.3,59.6,23.8z"/>
	</g>
	<g class="st1">
		
			<linearGradient id="SVGID_1_" gradientUnits="userSpaceOnUse" x1="24.2974" y1="36.65" x2="66.1328" y2="36.65" gradientTransform="matrix(1 0 0 -1 0 68)">
			<stop  offset="0" style="stop-color:#02DEF2"/>
			<stop  offset="1" style="stop-color:#0089FF"/>
		</linearGradient>
		<path class="st3" d="M66.1,50.9l-3.4,4l-7.1-5.6c-3.2,1.9-6.8,2.9-10.8,2.9c-6,0-11-2-14.8-6.1s-5.8-9.4-5.8-16.1
			s1.9-12.1,5.8-16.1c3.8-4.1,8.8-6.1,14.8-6.1s10.9,2,14.8,6.1c3.8,4.1,5.7,9.4,5.7,16.1c0,6.5-1.9,11.8-5.6,16L66.1,50.9z
			 M55.6,42.6c2.6-3.1,4-7.3,4-12.6c0-5.5-1.4-9.7-4.1-12.8s-6.2-4.6-10.5-4.6s-7.9,1.5-10.6,4.6c-2.8,3-4.1,7.3-4.1,12.8
			c0,5.4,1.4,9.7,4.1,12.8s6.3,4.6,10.5,4.6c2.3,0,4.4-0.5,6.5-1.4L47,42.5l3.4-4L55.6,42.6z"/>
	</g>
</g>
<g id="图层_1_x5F_复制">
	<title>Combined Shape</title>
	<desc>Created with Sketch.</desc>
	<g id="logo_1_" class="st0">
		
			<linearGradient id="Combined-Shape_3_" gradientUnits="userSpaceOnUse" x1="-505.7474" y1="11.9093" x2="-506.7474" y2="10.9093" gradientTransform="matrix(98.1445 0 0 66.1484 49737.9922 -723.9836)">
			<stop  offset="0" style="stop-color:#0089FF"/>
			<stop  offset="1" style="stop-color:#02DEF2"/>
		</linearGradient>
		<path id="Combined-Shape_1_" class="st4" d="M0,3.2h8.3v16.7H19V28H8.3v16.7H0V3.2z M38.8,35.7V3.2h-8.3v41.5h8.3v-0.5
			c0.5-1.8,1.6-2.6,3.1-2.6c0.9,0,1.6,0.3,2.1,0.8s0.8,1.3,0.8,2.1c0,1.2-0.4,2.3-1.3,3.4c-0.9,1.1-2.5,2.6-4.8,4.5s-4.3,4-5.8,6.3
			c-1.5,2.4-2.3,4.8-2.3,7.4h22.7v-6.3H40.9c0.5-0.9,1.8-2.1,4-3.9c3.1-2.4,5.2-4.4,6.3-5.9s1.6-3.3,1.6-5.3c0-2.8-0.9-5.1-2.8-6.8
			c-1.9-1.7-4.4-2.6-7.6-2.6C41.1,35.3,39.9,35.4,38.8,35.7z M73.9,0h0.3C81.5,0,87.8,3,93,9c3.4,4.5,5,9.4,5,14.7V24
			c0,7.3-3.1,13.6-9.2,18.7c-4.5,3.3-9.4,5-14.7,5h-0.3c-7.3,0-13.6-3-18.8-9c-1.8-2.5-3.1-4.9-3.8-7C50.4,29.2,50,26.6,50,24v-0.3
			c0-7.2,3-13.4,8.9-18.5c4-2.9,7.7-4.5,11-4.8C71,0.1,72.3,0,73.9,0z M59.6,23.8c0,4.2,1.6,7.8,4.9,11c2.9,2.5,5.9,3.7,9.1,3.7h0.9
			c2.6,0,5.2-0.9,7.8-2.6c2.7-2,4.6-4.6,5.6-7.7c0.3-0.8,0.5-2.2,0.7-4.2c0-4.1-1.6-7.7-4.7-10.8c-3-2.6-6.2-4-9.8-4
			c-4.1,0-7.8,1.7-11,5.2c-1.4,1.8-2.2,3.3-2.6,4.5C59.9,20.7,59.6,22.3,59.6,23.8z"/>
	</g>
	<g class="st5">
		
			<image style="overflow:visible;enable-background:new    ;" width="55" height="60" xlink:href="../B85EAD38.png"  transform="matrix(1 0 0 1 20 3)">
		</image>
		<g>
			<g>
				<path class="st6" d="M66.1,50.9l-3.4,4l-7.1-5.6c-3.2,1.9-6.8,2.9-10.8,2.9c-6,0-11-2-14.8-6.1s-5.8-9.4-5.8-16.1
					s1.9-12.1,5.8-16.1c3.8-4.1,8.8-6.1,14.8-6.1s10.9,2,14.8,6.1c3.8,4.1,5.7,9.4,5.7,16.1c0,6.5-1.9,11.8-5.6,16L66.1,50.9z
					 M55.6,42.6c2.6-3.1,4-7.3,4-12.6c0-5.5-1.4-9.7-4.1-12.8s-6.2-4.6-10.5-4.6s-7.9,1.5-10.6,4.6c-2.8,3-4.1,7.3-4.1,12.8
					c0,5.4,1.4,9.7,4.1,12.8s6.3,4.6,10.5,4.6c2.3,0,4.4-0.5,6.5-1.4L47,42.5l3.4-4L55.6,42.6z"/>
			</g>
		</g>
	</g>
</g>
</svg>
